<?xml version="1.0" standalone="no"?>
<!DOCTYPE svg PUBLIC "-//W3C//DTD SVG 20010904//EN"
 "http://www.w3.org/TR/2001/REC-SVG-20010904/DTD/svg10.dtd">
<svg version="1.0" xmlns="http://www.w3.org/2000/svg"
 width="256.000000pt" height="256.000000pt" viewBox="0 0 256.000000 256.000000"
 preserveAspectRatio="xMidYMid meet">
<metadata>
Created by potrace 1.14, written by Peter Selinger 2001-2017
</metadata>
<g transform="translate(0.000000,256.000000) scale(0.100000,-0.100000)"
fill="#000000" stroke="none">
<path d="M1080 2544 c-52 -8 -141 -30 -197 -49 -204 -68 -347 -157 -504 -314
-188 -187 -301 -396 -355 -656 -25 -122 -26 -365 -1 -485 83 -394 327 -718
672 -895 262 -133 545 -172 837 -114 499 99 898 498 997 997 28 139 34 253 21
372 -35 320 -161 583 -386 800 -179 173 -389 283 -639 335 -114 24 -328 28
-445 9z m490 -319 l0 -45 -290 0 -290 0 0 45 0 45 290 0 290 0 0 -45z m-400
-235 l0 -50 -175 0 -175 0 0 50 0 50 175 0 175 0 0 -50z m-242 -237 l-3 -48
-107 -3 -108 -3 0 51 0 50 111 0 110 0 -3 -47z m242 -233 l0 -50 -175 0 -175
0 0 50 0 50 175 0 175 0 0 -50z m400 -240 l0 -50 -290 0 -290 0 0 50 0 50 290
0 290 0 0 -50z m175 -235 l0 -50 -177 -3 -178 -2 0 50 0 49 153 4 c226 5 202
10 202 -48z m113 -237 l3 -48 -115 0 -116 0 0 50 0 51 113 -3 112 -3 3 -47z
m-108 -238 l0 -50 -180 0 -180 0 0 50 0 50 180 0 180 0 0 -50z m-180 -229 c0
-28 -4 -52 -9 -55 -4 -3 -135 -3 -290 1 l-281 6 0 42 c0 23 3 45 7 48 3 4 134
7 290 7 l283 0 0 -49z"/>
</g>
</svg>
